<?xml version="1.0" standalone="no"?>
<!DOCTYPE svg PUBLIC "-//W3C//DTD SVG 20010904//EN"
 "http://www.w3.org/TR/2001/REC-SVG-20010904/DTD/svg10.dtd">
<svg version="1.0" xmlns="http://www.w3.org/2000/svg"
 width="370.000000pt" height="370.000000pt" viewBox="0 0 370.000000 370.000000"
 preserveAspectRatio="xMidYMid meet">
<metadata>
Created by potrace 1.11, written by Peter Selinger 2001-2013
</metadata>
<g transform="translate(0.000000,370.000000) scale(0.100000,-0.100000)"
fill="#000000" stroke="none">
<path d="M0 3285 c0 -228 3 -415 8 -415 15 0 102 86 102 101 0 18 67 54 126
67 46 10 114 59 114 81 0 8 -7 22 -16 32 -24 26 -11 46 38 61 24 7 63 26 87
43 23 16 50 35 59 40 8 6 38 33 66 60 28 28 70 59 94 69 23 10 42 22 42 27 0
4 23 21 51 38 28 18 49 37 46 44 -5 16 36 47 70 53 15 3 35 12 44 20 8 8 30
14 47 14 18 0 32 5 32 11 0 6 14 24 31 40 l31 29 -536 0 -536 0 0 -415z"/>
<path d="M2681 3682 c-11 -21 18 -62 44 -62 9 0 26 -11 37 -25 11 -14 30 -25
43 -25 27 0 110 -34 119 -48 3 -6 20 -13 36 -17 17 -4 30 -11 30 -16 0 -16 56
-69 73 -69 9 0 22 -9 29 -20 7 -11 18 -20 25 -20 6 0 29 -18 51 -40 21 -22 42
-40 46 -40 8 0 66 -55 66 -63 0 -9 69 -77 79 -77 5 0 18 -10 28 -23 16 -20
115 -82 136 -86 19 -2 57 -35 62 -53 4 -10 19 -34 34 -51 16 -18 31 -43 34
-57 11 -47 32 -100 39 -100 5 0 8 205 8 455 l0 455 -505 0 c-471 0 -505 -1
-514 -18z"/>
<path d="M1970 3128 c-10 -4 -46 -5 -79 -4 -51 3 -63 0 -71 -14 -6 -11 -37
-25 -77 -35 -37 -10 -75 -24 -84 -31 -8 -8 -35 -24 -59 -37 -36 -19 -47 -31
-56 -62 -6 -23 -21 -46 -35 -55 -15 -9 -23 -23 -21 -36 2 -11 -14 -63 -34
-115 -32 -82 -38 -108 -42 -200 -3 -74 1 -129 12 -184 9 -42 16 -104 16 -136
l0 -59 -25 12 c-14 6 -25 18 -25 26 0 12 -30 13 -202 8 -112 -3 -224 -9 -251
-12 -38 -5 -51 -3 -68 12 -18 16 -38 18 -211 16 -105 -2 -198 -7 -208 -12 -41
-22 -280 -9 -340 18 -24 11 -47 19 -50 17 -4 -2 -14 9 -24 26 -9 16 -21 29
-27 29 -5 0 -9 -436 -9 -1150 l0 -1150 1850 0 1850 0 0 1131 c0 1072 -1 1130
-17 1125 -54 -16 -167 -26 -318 -27 -93 0 -177 0 -185 1 -60 6 -411 -7 -420
-16 -8 -8 -8 -19 0 -38 24 -64 -5 -161 -80 -267 -11 -15 -20 -41 -20 -57 0
-27 -4 -31 -32 -34 -37 -3 -41 -20 -6 -30 16 -4 10 -6 -23 -7 -25 -1 -50 4
-56 10 -13 13 -47 4 -39 -9 3 -5 -2 -72 -10 -148 -13 -119 -20 -149 -49 -210
-42 -87 -163 -219 -215 -234 -49 -14 -100 -13 -100 3 0 7 38 50 85 95 47 46
85 87 85 93 0 14 -59 -13 -137 -63 -109 -70 -118 -73 -212 -73 -82 0 -89 2
-149 39 -35 21 -67 49 -72 62 -5 13 -14 24 -20 24 -5 0 -9 20 -8 43 2 39 -2
48 -34 76 -27 23 -45 55 -71 124 -20 50 -39 112 -42 137 -9 57 -35 121 -45
115 -5 -3 -17 6 -27 21 -10 14 -26 34 -35 45 -10 10 -15 19 -10 19 4 0 -1 5
-12 11 -14 9 -16 13 -5 20 11 6 10 17 -5 58 -9 27 -16 62 -14 78 3 22 7 15 17
-32 8 -33 17 -64 21 -68 4 -4 12 30 19 76 13 84 13 84 37 73 13 -6 24 -14 24
-18 0 -15 27 -8 53 12 26 21 42 26 33 11 -3 -4 3 -16 14 -26 25 -23 67 -13 82
20 6 14 15 25 19 25 19 0 39 -13 39 -26 0 -16 16 -19 25 -4 3 5 -5 15 -19 22
-14 6 -26 15 -26 20 0 13 12 10 49 -13 41 -25 60 -14 45 28 -8 23 -22 33 -89
56 -69 23 -89 26 -145 21 -62 -7 -121 -7 -127 0 -5 5 -17 100 -17 136 0 79 22
220 40 256 16 34 24 39 57 42 22 2 41 10 44 18 3 8 15 14 26 14 16 0 18 -3 9
-12 -19 -19 -15 -40 7 -33 11 3 28 2 38 -4 30 -16 57 -24 73 -22 23 3 241 72
277 87 17 8 36 14 43 14 6 0 32 12 56 26 32 19 62 27 102 29 31 1 64 5 72 8
36 13 71 13 82 0 6 -8 24 -21 40 -29 15 -8 38 -31 51 -52 48 -78 51 -99 75
-520 6 -90 12 -165 15 -168 2 -3 8 17 12 43 9 62 20 82 53 94 19 7 23 12 13
18 -10 7 -11 26 -3 97 27 228 22 387 -14 438 -8 11 -14 28 -14 38 0 16 -46 99
-80 143 -24 32 -79 68 -181 119 l-96 48 -132 7 c-73 3 -141 3 -151 -1z m-267
-910 c14 -11 3 -13 -65 -14 -73 -2 -80 0 -63 12 23 17 105 18 128 2z m-338
-239 c4 -6 5 -12 2 -15 -7 -7 -37 7 -37 17 0 13 27 11 35 -2z m1475 -148 c0
-10 -32 -16 -55 -11 -5 1 -25 2 -43 1 -59 -1 -25 14 37 17 38 2 61 -1 61 -7z
m-23 -66 c-1 -5 -15 -8 -32 -6 -16 2 -39 5 -50 6 -39 5 -39 8 0 14 46 8 86 1
82 -14z m-987 -556 c0 -5 4 -8 8 -5 13 8 109 -24 123 -40 11 -13 7 -21 -27
-50 -70 -62 -80 -67 -102 -53 -28 18 -45 88 -31 128 10 30 29 43 29 20z"/>
<path d="M0 2710 c0 -28 3 -50 6 -50 8 0 44 41 44 50 0 3 -11 16 -25 28 l-25
22 0 -50z"/>
<path d="M2068 2279 c-33 -13 -33 -17 -9 -46 11 -14 30 -23 46 -23 20 0 26 -4
21 -15 -6 -17 9 -21 19 -5 10 17 35 11 35 -8 0 -43 63 -58 95 -22 13 14 25 18
44 14 24 -5 23 -4 -7 15 -18 12 -54 24 -80 28 -41 6 -43 7 -21 15 13 5 48 7
77 3 44 -5 52 -4 52 10 0 8 -12 20 -27 26 -40 15 -213 21 -245 8z"/>
<path d="M2700 2193 c0 -5 7 -17 16 -28 12 -16 16 -17 23 -6 13 20 2 41 -20
41 -10 0 -19 -3 -19 -7z"/>
<path d="M1772 1802 l-23 -18 28 -20 c23 -17 102 -44 127 -44 3 0 6 13 6 29 0
26 -4 29 -41 34 -22 3 -48 12 -57 21 -15 13 -20 13 -40 -2z"/>
<path d="M1946 1781 c-5 -7 6 -11 33 -11 22 0 41 -5 44 -12 4 -10 7 -10 18 -1
7 7 10 16 6 19 -12 12 -94 16 -101 5z"/>
<path d="M1670 1611 c0 -10 66 -52 90 -58 117 -29 303 -20 386 18 23 10 46 19
53 19 6 0 11 7 11 15 0 21 -16 19 -51 -7 -28 -21 -41 -23 -152 -22 -172 2
-288 14 -294 30 -6 15 -43 19 -43 5z"/>
</g>
</svg>
